<svg xmlns="http://www.w3.org/2000/svg" width="18" height="17" viewBox="0 0 18 17">
    <path fill="#00AEFA" fill-rule="evenodd" d="M8.571.286a8.574 8.574 0 0 1 2.712 16.707c-.435.078-.591-.19-.591-.413 0-.279.011-1.205.011-2.355 0-.803-.268-1.317-.58-1.584 1.908-.212 3.917-.938 3.917-4.23a3.32 3.32 0 0 0-.882-2.3c.09-.223.38-1.093-.089-2.276-.714-.223-2.355.881-2.355.881a8.07 8.07 0 0 0-4.285 0s-1.641-1.104-2.355-.881c-.47 1.183-.179 2.053-.09 2.277a3.32 3.32 0 0 0-.881 2.299c0 3.281 1.997 4.018 3.906 4.23-.246.223-.469.602-.547 1.15-.491.222-1.741.602-2.489-.715-.469-.815-1.317-.882-1.317-.882-.837-.011-.056.525-.056.525.558.256.95 1.25.95 1.25.501 1.529 2.89 1.015 2.89 1.015 0 .715.01 1.384.01 1.596 0 .224-.155.491-.59.413A8.574 8.574 0 0 1 8.571.285zm-5.323 12.31c-.023.045-.09.056-.145.022-.067-.033-.1-.089-.078-.134.022-.033.078-.044.145-.022.067.034.1.09.078.134zm.346.38c-.045.044-.123.022-.179-.034-.056-.067-.067-.145-.022-.179.045-.044.123-.022.178.034.056.067.067.145.023.178zm.335.502c-.045.033-.134 0-.19-.078-.056-.079-.056-.168 0-.201.056-.045.145-.011.19.067.055.078.055.167 0 .212zm.468.468c-.044.056-.145.045-.223-.033-.078-.067-.1-.167-.045-.212.045-.056.146-.045.224.033.067.067.089.168.044.212zm.636.28c-.022.066-.122.1-.212.066-.1-.022-.167-.1-.145-.167.023-.067.123-.1.212-.078.1.033.168.111.145.178zm.704.055c0 .067-.079.123-.179.123-.112.011-.19-.045-.19-.123 0-.067.078-.123.179-.123.1-.01.19.045.19.123zm.647-.111c.011.067-.056.134-.156.156-.1.022-.19-.022-.201-.09-.011-.078.056-.144.156-.167.1-.011.19.034.2.1z"/>
</svg>
